<svg xmlns="http://www.w3.org/2000/svg" width="1000" height="720" viewBox="0 0 1000 720">
<rect width="100%" height="100%" fill="white"/>
<style>text{font-family:Arial, sans-serif;font-size:13px;fill:#111827}.title{font-size:20px;font-weight:700}.small{font-size:12px;fill:#4b5563}.axis{stroke:#6b7280;stroke-width:1}.grid{stroke:#e5e7eb;stroke-width:1}.mean{stroke:#2563eb;fill:none;stroke-width:2.4}.std{stroke:#dc2626;fill:none;stroke-width:2.4}.dotm{fill:#2563eb}.dots{fill:#dc2626}</style>
<text x="70" y="28" class="title">Sokoban</text>
<line x1="70" y1="312.0" x2="970" y2="312.0" class="grid"/>
<text x="58" y="316.0" text-anchor="end" class="small">0</text>
<line x1="70" y1="247.0" x2="970" y2="247.0" class="grid"/>
<text x="58" y="251.0" text-anchor="end" class="small">0.25</text>
<line x1="70" y1="182.0" x2="970" y2="182.0" class="grid"/>
<text x="58" y="186.0" text-anchor="end" class="small">0.5</text>
<line x1="70" y1="117.0" x2="970" y2="117.0" class="grid"/>
<text x="58" y="121.0" text-anchor="end" class="small">0.75</text>
<line x1="70" y1="52.0" x2="970" y2="52.0" class="grid"/>
<text x="58" y="56.0" text-anchor="end" class="small">1</text>
<line x1="70" y1="312.0" x2="970" y2="312.0" class="axis"/>
<line x1="70" y1="312.0" x2="70" y2="52.0" class="axis"/>
<line x1="70.0" y1="312.0" x2="70.0" y2="317.0" class="axis"/>
<text x="70.0" y="334.0" text-anchor="middle" class="small">1</text>
<line x1="277.7" y1="312.0" x2="277.7" y2="317.0" class="axis"/>
<text x="277.7" y="334.0" text-anchor="middle" class="small">10</text>
<line x1="508.5" y1="312.0" x2="508.5" y2="317.0" class="axis"/>
<text x="508.5" y="334.0" text-anchor="middle" class="small">20</text>
<line x1="739.2" y1="312.0" x2="739.2" y2="317.0" class="axis"/>
<text x="739.2" y="334.0" text-anchor="middle" class="small">30</text>
<line x1="970.0" y1="312.0" x2="970.0" y2="317.0" class="axis"/>
<text x="970.0" y="334.0" text-anchor="middle" class="small">40</text>
<polyline points="70.0,195.0 93.1,230.8 116.2,224.2 139.2,204.8 162.3,224.2 185.4,269.8 208.5,247.0 231.5,237.2 254.6,221.0 277.7,227.5 300.8,247.0 323.8,230.8 346.9,250.2 370.0,243.8 393.1,185.2 416.2,208.0 439.2,214.5 462.3,188.5 485.4,195.0 508.5,221.0 531.5,217.8 554.6,221.0 577.7,195.0 600.8,221.0 623.8,217.8 646.9,227.5 670.0,204.8 693.1,217.8 716.2,204.8 739.2,247.0 762.3,234.0 785.4,250.2 808.5,250.2 831.5,243.8 854.6,237.2 877.7,243.8 900.8,214.5 923.8,234.0 946.9,230.8 970.0,224.2" class="mean"/>
<polyline points="70.0,265.9 93.1,274.1 116.2,253.1 139.2,279.6 162.3,260.1 185.4,278.1 208.5,275.2 231.5,279.6 254.6,292.3 277.7,270.9 300.8,284.2 323.8,286.2 346.9,272.8 370.0,284.4 393.1,274.1 416.2,270.3 439.2,281.7 462.3,255.1 485.4,263.9 508.5,278.0 531.5,264.0 554.6,268.1 577.7,268.1 600.8,268.1 623.8,266.0 646.9,273.3 670.0,276.7 693.1,272.8 716.2,276.7 739.2,284.2 762.3,265.9 785.4,278.1 808.5,272.8 831.5,270.5 854.6,282.7 877.7,275.4 900.8,264.4 923.8,278.0 946.9,271.6 970.0,272.8" class="std"/>
<circle cx="70.0" cy="195.0" r="3" class="dotm"/>
<circle cx="93.1" cy="230.8" r="3" class="dotm"/>
<circle cx="116.2" cy="224.2" r="3" class="dotm"/>
<circle cx="139.2" cy="204.8" r="3" class="dotm"/>
<circle cx="162.3" cy="224.2" r="3" class="dotm"/>
<circle cx="185.4" cy="269.8" r="3" class="dotm"/>
<circle cx="208.5" cy="247.0" r="3" class="dotm"/>
<circle cx="231.5" cy="237.2" r="3" class="dotm"/>
<circle cx="254.6" cy="221.0" r="3" class="dotm"/>
<circle cx="277.7" cy="227.5" r="3" class="dotm"/>
<circle cx="300.8" cy="247.0" r="3" class="dotm"/>
<circle cx="323.8" cy="230.8" r="3" class="dotm"/>
<circle cx="346.9" cy="250.2" r="3" class="dotm"/>
<circle cx="370.0" cy="243.8" r="3" class="dotm"/>
<circle cx="393.1" cy="185.2" r="3" class="dotm"/>
<circle cx="416.2" cy="208.0" r="3" class="dotm"/>
<circle cx="439.2" cy="214.5" r="3" class="dotm"/>
<circle cx="462.3" cy="188.5" r="3" class="dotm"/>
<circle cx="485.4" cy="195.0" r="3" class="dotm"/>
<circle cx="508.5" cy="221.0" r="3" class="dotm"/>
<circle cx="531.5" cy="217.8" r="3" class="dotm"/>
<circle cx="554.6" cy="221.0" r="3" class="dotm"/>
<circle cx="577.7" cy="195.0" r="3" class="dotm"/>
<circle cx="600.8" cy="221.0" r="3" class="dotm"/>
<circle cx="623.8" cy="217.8" r="3" class="dotm"/>
<circle cx="646.9" cy="227.5" r="3" class="dotm"/>
<circle cx="670.0" cy="204.8" r="3" class="dotm"/>
<circle cx="693.1" cy="217.8" r="3" class="dotm"/>
<circle cx="716.2" cy="204.8" r="3" class="dotm"/>
<circle cx="739.2" cy="247.0" r="3" class="dotm"/>
<circle cx="762.3" cy="234.0" r="3" class="dotm"/>
<circle cx="785.4" cy="250.2" r="3" class="dotm"/>
<circle cx="808.5" cy="250.2" r="3" class="dotm"/>
<circle cx="831.5" cy="243.8" r="3" class="dotm"/>
<circle cx="854.6" cy="237.2" r="3" class="dotm"/>
<circle cx="877.7" cy="243.8" r="3" class="dotm"/>
<circle cx="900.8" cy="214.5" r="3" class="dotm"/>
<circle cx="923.8" cy="234.0" r="3" class="dotm"/>
<circle cx="946.9" cy="230.8" r="3" class="dotm"/>
<circle cx="970.0" cy="224.2" r="3" class="dotm"/>
<circle cx="70.0" cy="265.9" r="3" class="dots"/>
<circle cx="93.1" cy="274.1" r="3" class="dots"/>
<circle cx="116.2" cy="253.1" r="3" class="dots"/>
<circle cx="139.2" cy="279.6" r="3" class="dots"/>
<circle cx="162.3" cy="260.1" r="3" class="dots"/>
<circle cx="185.4" cy="278.1" r="3" class="dots"/>
<circle cx="208.5" cy="275.2" r="3" class="dots"/>
<circle cx="231.5" cy="279.6" r="3" class="dots"/>
<circle cx="254.6" cy="292.3" r="3" class="dots"/>
<circle cx="277.7" cy="270.9" r="3" class="dots"/>
<circle cx="300.8" cy="284.2" r="3" class="dots"/>
<circle cx="323.8" cy="286.2" r="3" class="dots"/>
<circle cx="346.9" cy="272.8" r="3" class="dots"/>
<circle cx="370.0" cy="284.4" r="3" class="dots"/>
<circle cx="393.1" cy="274.1" r="3" class="dots"/>
<circle cx="416.2" cy="270.3" r="3" class="dots"/>
<circle cx="439.2" cy="281.7" r="3" class="dots"/>
<circle cx="462.3" cy="255.1" r="3" class="dots"/>
<circle cx="485.4" cy="263.9" r="3" class="dots"/>
<circle cx="508.5" cy="278.0" r="3" class="dots"/>
<circle cx="531.5" cy="264.0" r="3" class="dots"/>
<circle cx="554.6" cy="268.1" r="3" class="dots"/>
<circle cx="577.7" cy="268.1" r="3" class="dots"/>
<circle cx="600.8" cy="268.1" r="3" class="dots"/>
<circle cx="623.8" cy="266.0" r="3" class="dots"/>
<circle cx="646.9" cy="273.3" r="3" class="dots"/>
<circle cx="670.0" cy="276.7" r="3" class="dots"/>
<circle cx="693.1" cy="272.8" r="3" class="dots"/>
<circle cx="716.2" cy="276.7" r="3" class="dots"/>
<circle cx="739.2" cy="284.2" r="3" class="dots"/>
<circle cx="762.3" cy="265.9" r="3" class="dots"/>
<circle cx="785.4" cy="278.1" r="3" class="dots"/>
<circle cx="808.5" cy="272.8" r="3" class="dots"/>
<circle cx="831.5" cy="270.5" r="3" class="dots"/>
<circle cx="854.6" cy="282.7" r="3" class="dots"/>
<circle cx="877.7" cy="275.4" r="3" class="dots"/>
<circle cx="900.8" cy="264.4" r="3" class="dots"/>
<circle cx="923.8" cy="278.0" r="3" class="dots"/>
<circle cx="946.9" cy="271.6" r="3" class="dots"/>
<circle cx="970.0" cy="272.8" r="3" class="dots"/>
<rect x="780" y="16" width="14" height="3" fill="#2563eb"/><text x="802" y="22" class="small">mean_sample_pass_rate</text>
<rect x="780" y="38" width="14" height="3" fill="#dc2626"/><text x="802" y="44" class="small">std_sample_pass_rate</text>
<text x="500.0" y="350" text-anchor="middle" class="small">state_x</text>
<text x="70" y="388" class="title">FrozenLake</text>
<line x1="70" y1="672.0" x2="970" y2="672.0" class="grid"/>
<text x="58" y="676.0" text-anchor="end" class="small">0</text>
<line x1="70" y1="607.0" x2="970" y2="607.0" class="grid"/>
<text x="58" y="611.0" text-anchor="end" class="small">0.25</text>
<line x1="70" y1="542.0" x2="970" y2="542.0" class="grid"/>
<text x="58" y="546.0" text-anchor="end" class="small">0.5</text>
<line x1="70" y1="477.0" x2="970" y2="477.0" class="grid"/>
<text x="58" y="481.0" text-anchor="end" class="small">0.75</text>
<line x1="70" y1="412.0" x2="970" y2="412.0" class="grid"/>
<text x="58" y="416.0" text-anchor="end" class="small">1</text>
<line x1="70" y1="672.0" x2="970" y2="672.0" class="axis"/>
<line x1="70" y1="672.0" x2="70" y2="412.0" class="axis"/>
<line x1="70.0" y1="672.0" x2="70.0" y2="677.0" class="axis"/>
<text x="70.0" y="694.0" text-anchor="middle" class="small">1</text>
<line x1="277.7" y1="672.0" x2="277.7" y2="677.0" class="axis"/>
<text x="277.7" y="694.0" text-anchor="middle" class="small">10</text>
<line x1="508.5" y1="672.0" x2="508.5" y2="677.0" class="axis"/>
<text x="508.5" y="694.0" text-anchor="middle" class="small">20</text>
<line x1="739.2" y1="672.0" x2="739.2" y2="677.0" class="axis"/>
<text x="739.2" y="694.0" text-anchor="middle" class="small">30</text>
<line x1="970.0" y1="672.0" x2="970.0" y2="677.0" class="axis"/>
<text x="970.0" y="694.0" text-anchor="middle" class="small">40</text>
<polyline points="70.0,603.8 93.1,610.2 116.2,603.8 139.2,603.8 162.3,600.5 185.4,600.5 208.5,600.5 231.5,603.8 254.6,587.5 277.7,600.5 300.8,607.0 323.8,587.5 346.9,584.2 370.0,607.0 393.1,597.2 416.2,590.8 439.2,590.8 462.3,590.8 485.4,581.0 508.5,571.2 531.5,551.8 554.6,577.8 577.7,555.0 600.8,561.5 623.8,587.5 646.9,561.5 670.0,571.2 693.1,594.0 716.2,581.0 739.2,590.8 762.3,574.5 785.4,616.8 808.5,561.5 831.5,551.8 854.6,548.5 877.7,564.8 900.8,558.2 923.8,590.8 946.9,590.8 970.0,629.8" class="mean"/>
<polyline points="70.0,611.5 93.1,632.8 116.2,641.1 139.2,626.0 162.3,645.1 185.4,613.4 208.5,626.4 231.5,630.5 254.6,624.4 277.7,638.7 300.8,638.0 323.8,645.1 346.9,644.4 370.0,635.2 393.1,642.7 416.2,655.3 439.2,631.6 462.3,627.1 485.4,647.9 508.5,634.1 531.5,618.3 554.6,632.8 577.7,630.3 600.8,638.7 623.8,635.9 646.9,649.0 670.0,646.2 693.1,638.0 716.2,635.2 739.2,639.6 762.3,641.7 785.4,642.7 808.5,638.7 831.5,624.0 854.6,635.9 877.7,627.1 900.8,628.2 923.8,634.1 946.9,631.6 970.0,635.4" class="std"/>
<circle cx="70.0" cy="603.8" r="3" class="dotm"/>
<circle cx="93.1" cy="610.2" r="3" class="dotm"/>
<circle cx="116.2" cy="603.8" r="3" class="dotm"/>
<circle cx="139.2" cy="603.8" r="3" class="dotm"/>
<circle cx="162.3" cy="600.5" r="3" class="dotm"/>
<circle cx="185.4" cy="600.5" r="3" class="dotm"/>
<circle cx="208.5" cy="600.5" r="3" class="dotm"/>
<circle cx="231.5" cy="603.8" r="3" class="dotm"/>
<circle cx="254.6" cy="587.5" r="3" class="dotm"/>
<circle cx="277.7" cy="600.5" r="3" class="dotm"/>
<circle cx="300.8" cy="607.0" r="3" class="dotm"/>
<circle cx="323.8" cy="587.5" r="3" class="dotm"/>
<circle cx="346.9" cy="584.2" r="3" class="dotm"/>
<circle cx="370.0" cy="607.0" r="3" class="dotm"/>
<circle cx="393.1" cy="597.2" r="3" class="dotm"/>
<circle cx="416.2" cy="590.8" r="3" class="dotm"/>
<circle cx="439.2" cy="590.8" r="3" class="dotm"/>
<circle cx="462.3" cy="590.8" r="3" class="dotm"/>
<circle cx="485.4" cy="581.0" r="3" class="dotm"/>
<circle cx="508.5" cy="571.2" r="3" class="dotm"/>
<circle cx="531.5" cy="551.8" r="3" class="dotm"/>
<circle cx="554.6" cy="577.8" r="3" class="dotm"/>
<circle cx="577.7" cy="555.0" r="3" class="dotm"/>
<circle cx="600.8" cy="561.5" r="3" class="dotm"/>
<circle cx="623.8" cy="587.5" r="3" class="dotm"/>
<circle cx="646.9" cy="561.5" r="3" class="dotm"/>
<circle cx="670.0" cy="571.2" r="3" class="dotm"/>
<circle cx="693.1" cy="594.0" r="3" class="dotm"/>
<circle cx="716.2" cy="581.0" r="3" class="dotm"/>
<circle cx="739.2" cy="590.8" r="3" class="dotm"/>
<circle cx="762.3" cy="574.5" r="3" class="dotm"/>
<circle cx="785.4" cy="616.8" r="3" class="dotm"/>
<circle cx="808.5" cy="561.5" r="3" class="dotm"/>
<circle cx="831.5" cy="551.8" r="3" class="dotm"/>
<circle cx="854.6" cy="548.5" r="3" class="dotm"/>
<circle cx="877.7" cy="564.8" r="3" class="dotm"/>
<circle cx="900.8" cy="558.2" r="3" class="dotm"/>
<circle cx="923.8" cy="590.8" r="3" class="dotm"/>
<circle cx="946.9" cy="590.8" r="3" class="dotm"/>
<circle cx="970.0" cy="629.8" r="3" class="dotm"/>
<circle cx="70.0" cy="611.5" r="3" class="dots"/>
<circle cx="93.1" cy="632.8" r="3" class="dots"/>
<circle cx="116.2" cy="641.1" r="3" class="dots"/>
<circle cx="139.2" cy="626.0" r="3" class="dots"/>
<circle cx="162.3" cy="645.1" r="3" class="dots"/>
<circle cx="185.4" cy="613.4" r="3" class="dots"/>
<circle cx="208.5" cy="626.4" r="3" class="dots"/>
<circle cx="231.5" cy="630.5" r="3" class="dots"/>
<circle cx="254.6" cy="624.4" r="3" class="dots"/>
<circle cx="277.7" cy="638.7" r="3" class="dots"/>
<circle cx="300.8" cy="638.0" r="3" class="dots"/>
<circle cx="323.8" cy="645.1" r="3" class="dots"/>
<circle cx="346.9" cy="644.4" r="3" class="dots"/>
<circle cx="370.0" cy="635.2" r="3" class="dots"/>
<circle cx="393.1" cy="642.7" r="3" class="dots"/>
<circle cx="416.2" cy="655.3" r="3" class="dots"/>
<circle cx="439.2" cy="631.6" r="3" class="dots"/>
<circle cx="462.3" cy="627.1" r="3" class="dots"/>
<circle cx="485.4" cy="647.9" r="3" class="dots"/>
<circle cx="508.5" cy="634.1" r="3" class="dots"/>
<circle cx="531.5" cy="618.3" r="3" class="dots"/>
<circle cx="554.6" cy="632.8" r="3" class="dots"/>
<circle cx="577.7" cy="630.3" r="3" class="dots"/>
<circle cx="600.8" cy="638.7" r="3" class="dots"/>
<circle cx="623.8" cy="635.9" r="3" class="dots"/>
<circle cx="646.9" cy="649.0" r="3" class="dots"/>
<circle cx="670.0" cy="646.2" r="3" class="dots"/>
<circle cx="693.1" cy="638.0" r="3" class="dots"/>
<circle cx="716.2" cy="635.2" r="3" class="dots"/>
<circle cx="739.2" cy="639.6" r="3" class="dots"/>
<circle cx="762.3" cy="641.7" r="3" class="dots"/>
<circle cx="785.4" cy="642.7" r="3" class="dots"/>
<circle cx="808.5" cy="638.7" r="3" class="dots"/>
<circle cx="831.5" cy="624.0" r="3" class="dots"/>
<circle cx="854.6" cy="635.9" r="3" class="dots"/>
<circle cx="877.7" cy="627.1" r="3" class="dots"/>
<circle cx="900.8" cy="628.2" r="3" class="dots"/>
<circle cx="923.8" cy="634.1" r="3" class="dots"/>
<circle cx="946.9" cy="631.6" r="3" class="dots"/>
<circle cx="970.0" cy="635.4" r="3" class="dots"/>
<rect x="780" y="376" width="14" height="3" fill="#2563eb"/><text x="802" y="382" class="small">mean_sample_pass_rate</text>
<rect x="780" y="398" width="14" height="3" fill="#dc2626"/><text x="802" y="404" class="small">std_sample_pass_rate</text>
<text x="500.0" y="710" text-anchor="middle" class="small">state_x</text>
</svg>