<svg xmlns="http://www.w3.org/2000/svg" width="1200" height="720" viewBox="0 0 1200 720">
<rect width="100%" height="100%" fill="#ffffff"/>
<text x="86.0" y="42.0" font-family="Inter, Arial, sans-serif" font-size="26" font-weight="700" text-anchor="start" fill="#111827">MemoryS11</text>
<text x="86.0" y="68.0" font-family="Inter, Arial, sans-serif" font-size="15" font-weight="400" text-anchor="start" fill="#4b5563">Running average original reward by repeat; final mean=0.459, std=0.086, n=6</text>
<line x1="86" y1="630.00" x2="900" y2="630.00" stroke="#e5e7eb" stroke-width="1"/>
<text x="74.0" y="635.0" font-family="Inter, Arial, sans-serif" font-size="13" font-weight="400" text-anchor="end" fill="#4b5563">0.00</text>
<line x1="86" y1="492.00" x2="900" y2="492.00" stroke="#e5e7eb" stroke-width="1"/>
<text x="74.0" y="497.0" font-family="Inter, Arial, sans-serif" font-size="13" font-weight="400" text-anchor="end" fill="#4b5563">0.25</text>
<line x1="86" y1="354.00" x2="900" y2="354.00" stroke="#e5e7eb" stroke-width="1"/>
<text x="74.0" y="359.0" font-family="Inter, Arial, sans-serif" font-size="13" font-weight="400" text-anchor="end" fill="#4b5563">0.50</text>
<line x1="86" y1="216.00" x2="900" y2="216.00" stroke="#e5e7eb" stroke-width="1"/>
<text x="74.0" y="221.0" font-family="Inter, Arial, sans-serif" font-size="13" font-weight="400" text-anchor="end" fill="#4b5563">0.75</text>
<line x1="86" y1="78.00" x2="900" y2="78.00" stroke="#e5e7eb" stroke-width="1"/>
<text x="74.0" y="83.0" font-family="Inter, Arial, sans-serif" font-size="13" font-weight="400" text-anchor="end" fill="#4b5563">1.00</text>
<line x1="86.00" y1="78" x2="86.00" y2="630" stroke="#f3f4f6" stroke-width="1"/>
<text x="86.0" y="660.0" font-family="Inter, Arial, sans-serif" font-size="13" font-weight="400" text-anchor="middle" fill="#4b5563">1</text>
<line x1="257.37" y1="78" x2="257.37" y2="630" stroke="#f3f4f6" stroke-width="1"/>
<text x="257.4" y="660.0" font-family="Inter, Arial, sans-serif" font-size="13" font-weight="400" text-anchor="middle" fill="#4b5563">5</text>
<line x1="471.58" y1="78" x2="471.58" y2="630" stroke="#f3f4f6" stroke-width="1"/>
<text x="471.6" y="660.0" font-family="Inter, Arial, sans-serif" font-size="13" font-weight="400" text-anchor="middle" fill="#4b5563">10</text>
<line x1="685.79" y1="78" x2="685.79" y2="630" stroke="#f3f4f6" stroke-width="1"/>
<text x="685.8" y="660.0" font-family="Inter, Arial, sans-serif" font-size="13" font-weight="400" text-anchor="middle" fill="#4b5563">15</text>
<line x1="900.00" y1="78" x2="900.00" y2="630" stroke="#f3f4f6" stroke-width="1"/>
<text x="900.0" y="660.0" font-family="Inter, Arial, sans-serif" font-size="13" font-weight="400" text-anchor="middle" fill="#4b5563">20</text>
<line x1="86" y1="630" x2="900" y2="630" stroke="#111827" stroke-width="1.4"/>
<line x1="86" y1="78" x2="86" y2="630" stroke="#111827" stroke-width="1.4"/>
<text x="493.0" y="696.0" font-family="Inter, Arial, sans-serif" font-size="15" font-weight="400" text-anchor="middle" fill="#374151">Episode</text>
<text x="24" y="354.0" font-family="Inter, Arial, sans-serif" font-size="15" text-anchor="middle" fill="#374151" transform="rotate(-90 24 354.0)">Running average original reward</text>
<polyline points="86.00,165.86 128.84,123.98 171.68,241.14 214.53,202.20 257.37,287.76 300.21,344.80 343.05,385.54 385.89,348.02 428.74,320.67 471.58,351.60 514.42,376.91 557.26,398.00 600.11,415.85 642.95,420.34 685.79,434.32 728.63,432.01 771.47,443.66 814.32,454.01 857.16,463.27 900.00,444.13" fill="none" stroke="#2563eb" stroke-width="2.6" stroke-linejoin="round" stroke-linecap="round"/>
<circle cx="900.00" cy="444.13" r="3.5" fill="#2563eb"/>
<polyline points="86.00,630.00 128.84,630.00 171.68,630.00 214.53,496.31 257.37,523.05 300.21,455.58 343.05,402.23 385.89,362.21 428.74,333.55 471.58,363.20 514.42,387.45 557.26,407.66 600.11,384.83 642.95,367.26 685.79,348.14 728.63,365.75 771.47,381.30 814.32,364.58 857.16,351.62 900.00,340.89" fill="none" stroke="#dc2626" stroke-width="2.6" stroke-linejoin="round" stroke-linecap="round"/>
<circle cx="900.00" cy="340.89" r="3.5" fill="#dc2626"/>
<polyline points="86.00,630.00 128.84,630.00 171.68,447.09 214.53,357.28 257.37,411.83 300.21,448.19 343.05,395.66 385.89,356.46 428.74,326.98 471.58,357.28 514.42,337.20 557.26,361.60 600.11,340.16 642.95,333.63 685.79,320.31 728.63,320.10 771.47,338.33 814.32,324.05 857.16,317.15 900.00,332.80" fill="none" stroke="#16a34a" stroke-width="2.6" stroke-linejoin="round" stroke-linecap="round"/>
<circle cx="900.00" cy="332.80" r="3.5" fill="#16a34a"/>
<polyline points="86.00,281.65 128.84,455.82 171.68,351.78 214.53,421.33 257.37,463.07 300.21,490.89 343.05,432.61 385.89,389.62 428.74,393.95 471.58,417.56 514.42,436.87 557.26,452.96 600.11,424.69 642.95,439.35 685.79,419.48 728.63,432.64 771.47,444.25 814.32,424.17 857.16,435.01 900.00,417.44" fill="none" stroke="#9333ea" stroke-width="2.6" stroke-linejoin="round" stroke-linecap="round"/>
<circle cx="900.00" cy="417.44" r="3.5" fill="#9333ea"/>
<polyline points="86.00,97.71 128.84,100.58 171.68,94.42 214.53,228.32 257.37,308.65 300.21,362.21 343.05,400.47 385.89,369.29 428.74,347.06 471.58,357.02 514.42,381.84 557.26,402.52 600.11,377.87 642.95,359.91 685.79,343.53 728.63,361.43 771.47,377.23 814.32,360.88 857.16,346.38 900.00,336.08" fill="none" stroke="#ea580c" stroke-width="2.6" stroke-linejoin="round" stroke-linecap="round"/>
<circle cx="900.00" cy="336.08" r="3.5" fill="#ea580c"/>
<polyline points="86.00,630.00 128.84,363.85 171.68,269.94 214.53,359.95 257.37,413.96 300.21,358.93 343.05,319.15 385.89,358.00 428.74,388.22 471.58,396.95 514.42,418.13 557.26,435.79 600.11,408.52 642.95,395.47 685.79,374.69 728.63,382.68 771.47,397.23 814.32,391.85 857.16,404.39 900.00,388.27" fill="none" stroke="#0891b2" stroke-width="2.6" stroke-linejoin="round" stroke-linecap="round"/>
<circle cx="900.00" cy="388.27" r="3.5" fill="#0891b2"/>
<text x="934.0" y="86.0" font-family="Inter, Arial, sans-serif" font-size="16" font-weight="700" text-anchor="start" fill="#111827">Repeats</text>
<line x1="934" y1="112.0" x2="964" y2="112.0" stroke="#2563eb" stroke-width="3"/>
<text x="974.0" y="117.0" font-family="Inter, Arial, sans-serif" font-size="13" font-weight="400" text-anchor="start" fill="#374151">run 0: final=0.337</text>
<line x1="934" y1="140.0" x2="964" y2="140.0" stroke="#dc2626" stroke-width="3"/>
<text x="974.0" y="145.0" font-family="Inter, Arial, sans-serif" font-size="13" font-weight="400" text-anchor="start" fill="#374151">run 1: final=0.524</text>
<line x1="934" y1="168.0" x2="964" y2="168.0" stroke="#16a34a" stroke-width="3"/>
<text x="974.0" y="173.0" font-family="Inter, Arial, sans-serif" font-size="13" font-weight="400" text-anchor="start" fill="#374151">run 2: final=0.538</text>
<line x1="934" y1="196.0" x2="964" y2="196.0" stroke="#9333ea" stroke-width="3"/>
<text x="974.0" y="201.0" font-family="Inter, Arial, sans-serif" font-size="13" font-weight="400" text-anchor="start" fill="#374151">run 3: final=0.385</text>
<line x1="934" y1="224.0" x2="964" y2="224.0" stroke="#ea580c" stroke-width="3"/>
<text x="974.0" y="229.0" font-family="Inter, Arial, sans-serif" font-size="13" font-weight="400" text-anchor="start" fill="#374151">run 4: final=0.532</text>
<line x1="934" y1="252.0" x2="964" y2="252.0" stroke="#0891b2" stroke-width="3"/>
<text x="974.0" y="257.0" font-family="Inter, Arial, sans-serif" font-size="13" font-weight="400" text-anchor="start" fill="#374151">run 5: final=0.438</text>
</svg>