<svg xmlns="http://www.w3.org/2000/svg" width="1200" height="720" viewBox="0 0 1200 720">
<rect width="100%" height="100%" fill="#ffffff"/>
<text x="86.0" y="42.0" font-family="Inter, Arial, sans-serif" font-size="26" font-weight="700" text-anchor="start" fill="#111827">MemoryS11</text>
<text x="86.0" y="68.0" font-family="Inter, Arial, sans-serif" font-size="15" font-weight="400" text-anchor="start" fill="#4b5563">Running average original reward by repeat; final mean=0.507, std=0.100, n=6</text>
<line x1="86" y1="630.00" x2="900" y2="630.00" stroke="#e5e7eb" stroke-width="1"/>
<text x="74.0" y="635.0" font-family="Inter, Arial, sans-serif" font-size="13" font-weight="400" text-anchor="end" fill="#4b5563">0.00</text>
<line x1="86" y1="492.00" x2="900" y2="492.00" stroke="#e5e7eb" stroke-width="1"/>
<text x="74.0" y="497.0" font-family="Inter, Arial, sans-serif" font-size="13" font-weight="400" text-anchor="end" fill="#4b5563">0.25</text>
<line x1="86" y1="354.00" x2="900" y2="354.00" stroke="#e5e7eb" stroke-width="1"/>
<text x="74.0" y="359.0" font-family="Inter, Arial, sans-serif" font-size="13" font-weight="400" text-anchor="end" fill="#4b5563">0.50</text>
<line x1="86" y1="216.00" x2="900" y2="216.00" stroke="#e5e7eb" stroke-width="1"/>
<text x="74.0" y="221.0" font-family="Inter, Arial, sans-serif" font-size="13" font-weight="400" text-anchor="end" fill="#4b5563">0.75</text>
<line x1="86" y1="78.00" x2="900" y2="78.00" stroke="#e5e7eb" stroke-width="1"/>
<text x="74.0" y="83.0" font-family="Inter, Arial, sans-serif" font-size="13" font-weight="400" text-anchor="end" fill="#4b5563">1.00</text>
<line x1="86.00" y1="78" x2="86.00" y2="630" stroke="#f3f4f6" stroke-width="1"/>
<text x="86.0" y="660.0" font-family="Inter, Arial, sans-serif" font-size="13" font-weight="400" text-anchor="middle" fill="#4b5563">1</text>
<line x1="257.37" y1="78" x2="257.37" y2="630" stroke="#f3f4f6" stroke-width="1"/>
<text x="257.4" y="660.0" font-family="Inter, Arial, sans-serif" font-size="13" font-weight="400" text-anchor="middle" fill="#4b5563">5</text>
<line x1="471.58" y1="78" x2="471.58" y2="630" stroke="#f3f4f6" stroke-width="1"/>
<text x="471.6" y="660.0" font-family="Inter, Arial, sans-serif" font-size="13" font-weight="400" text-anchor="middle" fill="#4b5563">10</text>
<line x1="685.79" y1="78" x2="685.79" y2="630" stroke="#f3f4f6" stroke-width="1"/>
<text x="685.8" y="660.0" font-family="Inter, Arial, sans-serif" font-size="13" font-weight="400" text-anchor="middle" fill="#4b5563">15</text>
<line x1="900.00" y1="78" x2="900.00" y2="630" stroke="#f3f4f6" stroke-width="1"/>
<text x="900.0" y="660.0" font-family="Inter, Arial, sans-serif" font-size="13" font-weight="400" text-anchor="middle" fill="#4b5563">20</text>
<line x1="86" y1="630" x2="900" y2="630" stroke="#111827" stroke-width="1.4"/>
<line x1="86" y1="78" x2="86" y2="630" stroke="#111827" stroke-width="1.4"/>
<text x="493.0" y="696.0" font-family="Inter, Arial, sans-serif" font-size="15" font-weight="400" text-anchor="middle" fill="#374151">Episode</text>
<text x="24" y="354.0" font-family="Inter, Arial, sans-serif" font-size="15" text-anchor="middle" fill="#374151" transform="rotate(-90 24 354.0)">Running average original reward</text>
<polyline points="86.00,87.03 128.84,84.57 171.68,83.47 214.53,86.83 257.37,86.38 300.21,96.20 343.05,141.46 385.89,170.07 428.74,166.68 471.58,213.02 514.42,206.71 557.26,198.59 600.11,198.66 642.95,215.38 685.79,206.93 728.63,233.38 771.47,256.71 814.32,246.96 857.16,267.12 900.00,259.51" fill="none" stroke="#2563eb" stroke-width="2.6" stroke-linejoin="round" stroke-linecap="round"/>
<circle cx="900.00" cy="259.51" r="3.5" fill="#2563eb"/>
<polyline points="86.00,630.00 128.84,391.36 171.68,288.00 214.53,333.84 257.37,393.07 300.21,432.56 343.05,460.76 385.89,415.59 428.74,400.89 471.58,423.80 514.42,442.54 557.26,458.17 600.11,429.11 642.95,412.01 685.79,390.07 728.63,376.11 771.47,391.04 814.32,373.88 857.16,387.36 900.00,399.49" fill="none" stroke="#dc2626" stroke-width="2.6" stroke-linejoin="round" stroke-linecap="round"/>
<circle cx="900.00" cy="399.49" r="3.5" fill="#dc2626"/>
<polyline points="86.00,630.00 128.84,356.05 171.68,270.21 214.53,223.19 257.37,304.55 300.21,333.99 343.05,376.28 385.89,339.71 428.74,371.96 471.58,397.77 514.42,418.88 557.26,436.47 600.11,409.21 642.95,424.98 685.79,402.67 728.63,405.89 771.47,419.07 814.32,400.26 857.16,405.34 900.00,389.30" fill="none" stroke="#16a34a" stroke-width="2.6" stroke-linejoin="round" stroke-linecap="round"/>
<circle cx="900.00" cy="389.30" r="3.5" fill="#16a34a"/>
<polyline points="86.00,188.04 128.84,409.02 171.68,299.77 214.53,252.54 257.37,328.03 300.21,333.30 343.05,375.69 385.89,407.48 428.74,432.20 471.58,397.27 514.42,397.81 557.26,417.16 600.11,391.51 642.95,408.55 685.79,387.39 728.63,402.55 771.47,384.23 814.32,397.89 857.16,383.00 900.00,395.35" fill="none" stroke="#9333ea" stroke-width="2.6" stroke-linejoin="round" stroke-linecap="round"/>
<circle cx="900.00" cy="395.35" r="3.5" fill="#9333ea"/>
<polyline points="86.00,267.69 128.84,174.90 171.68,151.08 214.53,133.84 257.37,233.07 300.21,299.23 343.05,268.44 385.89,245.87 428.74,227.86 471.58,268.07 514.42,300.97 557.26,328.39 600.11,351.59 642.95,332.64 685.79,329.13 728.63,313.79 771.47,332.39 814.32,318.76 857.16,306.78 900.00,322.94" fill="none" stroke="#ea580c" stroke-width="2.6" stroke-linejoin="round" stroke-linecap="round"/>
<circle cx="900.00" cy="322.94" r="3.5" fill="#ea580c"/>
<polyline points="86.00,165.04 128.84,397.52 171.68,321.12 214.53,261.57 257.37,335.26 300.21,356.98 343.05,317.48 385.89,356.54 428.74,332.16 471.58,361.95 514.42,337.03 557.26,361.44 600.11,340.84 642.95,323.24 685.79,309.19 728.63,329.24 771.47,346.93 814.32,332.17 857.16,347.85 900.00,334.60" fill="none" stroke="#0891b2" stroke-width="2.6" stroke-linejoin="round" stroke-linecap="round"/>
<circle cx="900.00" cy="334.60" r="3.5" fill="#0891b2"/>
<text x="934.0" y="86.0" font-family="Inter, Arial, sans-serif" font-size="16" font-weight="700" text-anchor="start" fill="#111827">Repeats</text>
<line x1="934" y1="112.0" x2="964" y2="112.0" stroke="#2563eb" stroke-width="3"/>
<text x="974.0" y="117.0" font-family="Inter, Arial, sans-serif" font-size="13" font-weight="400" text-anchor="start" fill="#374151">run 0: final=0.671</text>
<line x1="934" y1="140.0" x2="964" y2="140.0" stroke="#dc2626" stroke-width="3"/>
<text x="974.0" y="145.0" font-family="Inter, Arial, sans-serif" font-size="13" font-weight="400" text-anchor="start" fill="#374151">run 1: final=0.418</text>
<line x1="934" y1="168.0" x2="964" y2="168.0" stroke="#16a34a" stroke-width="3"/>
<text x="974.0" y="173.0" font-family="Inter, Arial, sans-serif" font-size="13" font-weight="400" text-anchor="start" fill="#374151">run 2: final=0.436</text>
<line x1="934" y1="196.0" x2="964" y2="196.0" stroke="#9333ea" stroke-width="3"/>
<text x="974.0" y="201.0" font-family="Inter, Arial, sans-serif" font-size="13" font-weight="400" text-anchor="start" fill="#374151">run 3: final=0.425</text>
<line x1="934" y1="224.0" x2="964" y2="224.0" stroke="#ea580c" stroke-width="3"/>
<text x="974.0" y="229.0" font-family="Inter, Arial, sans-serif" font-size="13" font-weight="400" text-anchor="start" fill="#374151">run 4: final=0.556</text>
<line x1="934" y1="252.0" x2="964" y2="252.0" stroke="#0891b2" stroke-width="3"/>
<text x="974.0" y="257.0" font-family="Inter, Arial, sans-serif" font-size="13" font-weight="400" text-anchor="start" fill="#374151">run 5: final=0.535</text>
</svg>