<svg xmlns="http://www.w3.org/2000/svg" width="1200" height="720" viewBox="0 0 1200 720">
<rect width="100%" height="100%" fill="#ffffff"/>
<text x="86.0" y="42.0" font-family="Inter, Arial, sans-serif" font-size="26" font-weight="700" text-anchor="start" fill="#111827">SimpleCrossingS9N3</text>
<text x="86.0" y="68.0" font-family="Inter, Arial, sans-serif" font-size="15" font-weight="400" text-anchor="start" fill="#4b5563">Running average original reward by repeat; final mean=0.229, std=0.020, n=4</text>
<line x1="86" y1="630.00" x2="900" y2="630.00" stroke="#e5e7eb" stroke-width="1"/>
<text x="74.0" y="635.0" font-family="Inter, Arial, sans-serif" font-size="13" font-weight="400" text-anchor="end" fill="#4b5563">0.00</text>
<line x1="86" y1="492.00" x2="900" y2="492.00" stroke="#e5e7eb" stroke-width="1"/>
<text x="74.0" y="497.0" font-family="Inter, Arial, sans-serif" font-size="13" font-weight="400" text-anchor="end" fill="#4b5563">0.25</text>
<line x1="86" y1="354.00" x2="900" y2="354.00" stroke="#e5e7eb" stroke-width="1"/>
<text x="74.0" y="359.0" font-family="Inter, Arial, sans-serif" font-size="13" font-weight="400" text-anchor="end" fill="#4b5563">0.50</text>
<line x1="86" y1="216.00" x2="900" y2="216.00" stroke="#e5e7eb" stroke-width="1"/>
<text x="74.0" y="221.0" font-family="Inter, Arial, sans-serif" font-size="13" font-weight="400" text-anchor="end" fill="#4b5563">0.75</text>
<line x1="86" y1="78.00" x2="900" y2="78.00" stroke="#e5e7eb" stroke-width="1"/>
<text x="74.0" y="83.0" font-family="Inter, Arial, sans-serif" font-size="13" font-weight="400" text-anchor="end" fill="#4b5563">1.00</text>
<line x1="86.00" y1="78" x2="86.00" y2="630" stroke="#f3f4f6" stroke-width="1"/>
<text x="86.0" y="660.0" font-family="Inter, Arial, sans-serif" font-size="13" font-weight="400" text-anchor="middle" fill="#4b5563">1</text>
<line x1="257.37" y1="78" x2="257.37" y2="630" stroke="#f3f4f6" stroke-width="1"/>
<text x="257.4" y="660.0" font-family="Inter, Arial, sans-serif" font-size="13" font-weight="400" text-anchor="middle" fill="#4b5563">5</text>
<line x1="471.58" y1="78" x2="471.58" y2="630" stroke="#f3f4f6" stroke-width="1"/>
<text x="471.6" y="660.0" font-family="Inter, Arial, sans-serif" font-size="13" font-weight="400" text-anchor="middle" fill="#4b5563">10</text>
<line x1="685.79" y1="78" x2="685.79" y2="630" stroke="#f3f4f6" stroke-width="1"/>
<text x="685.8" y="660.0" font-family="Inter, Arial, sans-serif" font-size="13" font-weight="400" text-anchor="middle" fill="#4b5563">15</text>
<line x1="900.00" y1="78" x2="900.00" y2="630" stroke="#f3f4f6" stroke-width="1"/>
<text x="900.0" y="660.0" font-family="Inter, Arial, sans-serif" font-size="13" font-weight="400" text-anchor="middle" fill="#4b5563">20</text>
<line x1="86" y1="630" x2="900" y2="630" stroke="#111827" stroke-width="1.4"/>
<line x1="86" y1="78" x2="86" y2="630" stroke="#111827" stroke-width="1.4"/>
<text x="493.0" y="696.0" font-family="Inter, Arial, sans-serif" font-size="15" font-weight="400" text-anchor="middle" fill="#374151">Episode</text>
<text x="24" y="354.0" font-family="Inter, Arial, sans-serif" font-size="15" text-anchor="middle" fill="#374151" transform="rotate(-90 24 354.0)">Running average original reward</text>
<polyline points="86.00,251.27 128.84,316.43 171.68,362.69 214.53,429.52 257.37,469.61 300.21,496.34 343.05,454.76 385.89,442.93 428.74,425.90 471.58,440.63 514.42,457.85 557.26,472.19 600.11,484.33 642.95,494.74 685.79,486.28 728.63,482.03 771.47,478.02 814.32,486.46 857.16,487.48 900.00,494.61" fill="none" stroke="#2563eb" stroke-width="2.6" stroke-linejoin="round" stroke-linecap="round"/>
<circle cx="900.00" cy="494.61" r="3.5" fill="#2563eb"/>
<polyline points="86.00,291.13 128.84,338.67 171.68,435.78 214.53,484.33 257.37,513.47 300.21,532.89 343.05,546.76 385.89,506.37 428.74,492.68 471.58,506.41 514.42,517.65 557.26,527.01 600.11,502.73 642.95,485.54 685.79,485.36 728.63,494.40 771.47,502.37 814.32,500.94 857.16,492.00 900.00,498.90" fill="none" stroke="#dc2626" stroke-width="2.6" stroke-linejoin="round" stroke-linecap="round"/>
<circle cx="900.00" cy="498.90" r="3.5" fill="#dc2626"/>
<polyline points="86.00,289.60 128.84,323.33 171.68,425.56 214.53,476.67 257.37,507.33 300.21,527.78 343.05,505.80 385.89,521.33 428.74,526.07 471.58,502.73 514.42,514.30 557.26,523.94 600.11,502.14 642.95,511.28 685.79,519.19 728.63,526.12 771.47,532.23 814.32,511.76 857.16,494.50 900.00,501.28" fill="none" stroke="#16a34a" stroke-width="2.6" stroke-linejoin="round" stroke-linecap="round"/>
<circle cx="900.00" cy="501.28" r="3.5" fill="#16a34a"/>
<polyline points="86.00,630.00 128.84,630.00 171.68,530.33 214.53,555.25 257.37,570.20 300.21,510.91 343.05,527.92 385.89,540.68 428.74,516.02 471.58,492.15 514.42,504.68 557.26,515.13 600.11,523.96 642.95,531.54 685.79,538.10 728.63,543.85 771.47,548.91 814.32,526.07 857.16,514.03 900.00,519.83" fill="none" stroke="#9333ea" stroke-width="2.6" stroke-linejoin="round" stroke-linecap="round"/>
<circle cx="900.00" cy="519.83" r="3.5" fill="#9333ea"/>
<text x="934.0" y="86.0" font-family="Inter, Arial, sans-serif" font-size="16" font-weight="700" text-anchor="start" fill="#111827">Repeats</text>
<line x1="934" y1="112.0" x2="964" y2="112.0" stroke="#2563eb" stroke-width="3"/>
<text x="974.0" y="117.0" font-family="Inter, Arial, sans-serif" font-size="13" font-weight="400" text-anchor="start" fill="#374151">run 0: final=0.245</text>
<line x1="934" y1="140.0" x2="964" y2="140.0" stroke="#dc2626" stroke-width="3"/>
<text x="974.0" y="145.0" font-family="Inter, Arial, sans-serif" font-size="13" font-weight="400" text-anchor="start" fill="#374151">run 1: final=0.238</text>
<line x1="934" y1="168.0" x2="964" y2="168.0" stroke="#16a34a" stroke-width="3"/>
<text x="974.0" y="173.0" font-family="Inter, Arial, sans-serif" font-size="13" font-weight="400" text-anchor="start" fill="#374151">run 2: final=0.233</text>
<line x1="934" y1="196.0" x2="964" y2="196.0" stroke="#9333ea" stroke-width="3"/>
<text x="974.0" y="201.0" font-family="Inter, Arial, sans-serif" font-size="13" font-weight="400" text-anchor="start" fill="#374151">run 3: final=0.200</text>
</svg>