<svg xmlns="http://www.w3.org/2000/svg" width="1200" height="720" viewBox="0 0 1200 720">
<rect width="100%" height="100%" fill="#ffffff"/>
<text x="86.0" y="42.0" font-family="Inter, Arial, sans-serif" font-size="26" font-weight="700" text-anchor="start" fill="#111827">DistShift1</text>
<text x="86.0" y="68.0" font-family="Inter, Arial, sans-serif" font-size="15" font-weight="400" text-anchor="start" fill="#4b5563">Running average original reward by repeat; final mean=0.083, std=0.069, n=6</text>
<line x1="86" y1="630.00" x2="900" y2="630.00" stroke="#e5e7eb" stroke-width="1"/>
<text x="74.0" y="635.0" font-family="Inter, Arial, sans-serif" font-size="13" font-weight="400" text-anchor="end" fill="#4b5563">0.00</text>
<line x1="86" y1="492.00" x2="900" y2="492.00" stroke="#e5e7eb" stroke-width="1"/>
<text x="74.0" y="497.0" font-family="Inter, Arial, sans-serif" font-size="13" font-weight="400" text-anchor="end" fill="#4b5563">0.25</text>
<line x1="86" y1="354.00" x2="900" y2="354.00" stroke="#e5e7eb" stroke-width="1"/>
<text x="74.0" y="359.0" font-family="Inter, Arial, sans-serif" font-size="13" font-weight="400" text-anchor="end" fill="#4b5563">0.50</text>
<line x1="86" y1="216.00" x2="900" y2="216.00" stroke="#e5e7eb" stroke-width="1"/>
<text x="74.0" y="221.0" font-family="Inter, Arial, sans-serif" font-size="13" font-weight="400" text-anchor="end" fill="#4b5563">0.75</text>
<line x1="86" y1="78.00" x2="900" y2="78.00" stroke="#e5e7eb" stroke-width="1"/>
<text x="74.0" y="83.0" font-family="Inter, Arial, sans-serif" font-size="13" font-weight="400" text-anchor="end" fill="#4b5563">1.00</text>
<line x1="86.00" y1="78" x2="86.00" y2="630" stroke="#f3f4f6" stroke-width="1"/>
<text x="86.0" y="660.0" font-family="Inter, Arial, sans-serif" font-size="13" font-weight="400" text-anchor="middle" fill="#4b5563">1</text>
<line x1="257.37" y1="78" x2="257.37" y2="630" stroke="#f3f4f6" stroke-width="1"/>
<text x="257.4" y="660.0" font-family="Inter, Arial, sans-serif" font-size="13" font-weight="400" text-anchor="middle" fill="#4b5563">5</text>
<line x1="471.58" y1="78" x2="471.58" y2="630" stroke="#f3f4f6" stroke-width="1"/>
<text x="471.6" y="660.0" font-family="Inter, Arial, sans-serif" font-size="13" font-weight="400" text-anchor="middle" fill="#4b5563">10</text>
<line x1="685.79" y1="78" x2="685.79" y2="630" stroke="#f3f4f6" stroke-width="1"/>
<text x="685.8" y="660.0" font-family="Inter, Arial, sans-serif" font-size="13" font-weight="400" text-anchor="middle" fill="#4b5563">15</text>
<line x1="900.00" y1="78" x2="900.00" y2="630" stroke="#f3f4f6" stroke-width="1"/>
<text x="900.0" y="660.0" font-family="Inter, Arial, sans-serif" font-size="13" font-weight="400" text-anchor="middle" fill="#4b5563">20</text>
<line x1="86" y1="630" x2="900" y2="630" stroke="#111827" stroke-width="1.4"/>
<line x1="86" y1="78" x2="86" y2="630" stroke="#111827" stroke-width="1.4"/>
<text x="493.0" y="696.0" font-family="Inter, Arial, sans-serif" font-size="15" font-weight="400" text-anchor="middle" fill="#374151">Episode</text>
<text x="24" y="354.0" font-family="Inter, Arial, sans-serif" font-size="15" text-anchor="middle" fill="#374151" transform="rotate(-90 24 354.0)">Running average original reward</text>
<polyline points="86.00,630.00 128.84,630.00 171.68,630.00 214.53,630.00 257.37,533.40 300.21,549.50 343.05,561.00 385.89,569.62 428.74,576.33 471.58,581.70 514.42,586.09 557.26,589.75 600.11,592.85 642.95,595.50 685.79,569.54 728.63,573.32 771.47,576.66 814.32,565.38 857.16,543.46 900.00,547.79" fill="none" stroke="#2563eb" stroke-width="2.6" stroke-linejoin="round" stroke-linecap="round"/>
<circle cx="900.00" cy="547.79" r="3.5" fill="#2563eb"/>
<polyline points="86.00,630.00 128.84,630.00 171.68,630.00 214.53,630.00 257.37,630.00 300.21,630.00 343.05,573.96 385.89,580.96 428.74,532.96 471.58,542.67 514.42,550.61 557.26,557.22 600.11,562.82 642.95,567.62 685.79,571.78 728.63,575.42 771.47,578.63 814.32,581.48 857.16,584.03 900.00,586.33" fill="none" stroke="#dc2626" stroke-width="2.6" stroke-linejoin="round" stroke-linecap="round"/>
<circle cx="900.00" cy="586.33" r="3.5" fill="#dc2626"/>
<polyline points="86.00,630.00 128.84,630.00 171.68,630.00 214.53,630.00 257.37,630.00 300.21,630.00 343.05,630.00 385.89,630.00 428.74,630.00 471.58,630.00 514.42,630.00 557.26,630.00 600.11,630.00 642.95,630.00 685.79,630.00 728.63,630.00 771.47,630.00 814.32,630.00 857.16,630.00 900.00,630.00" fill="none" stroke="#16a34a" stroke-width="2.6" stroke-linejoin="round" stroke-linecap="round"/>
<circle cx="900.00" cy="630.00" r="3.5" fill="#16a34a"/>
<polyline points="86.00,630.00 128.84,630.00 171.68,630.00 214.53,630.00 257.37,533.40 300.21,480.50 343.05,501.86 385.89,517.88 428.74,530.33 471.58,540.30 514.42,548.45 557.26,555.25 600.11,522.63 642.95,530.30 685.79,536.95 728.63,530.32 771.47,536.18 814.32,541.40 857.16,546.06 900.00,550.26" fill="none" stroke="#9333ea" stroke-width="2.6" stroke-linejoin="round" stroke-linecap="round"/>
<circle cx="900.00" cy="550.26" r="3.5" fill="#9333ea"/>
<polyline points="86.00,630.00 128.84,630.00 171.68,630.00 214.53,517.14 257.37,539.71 300.21,554.76 343.05,565.51 385.89,513.44 428.74,526.39 471.58,536.75 514.42,545.23 557.26,552.29 600.11,558.27 642.95,563.39 685.79,567.83 728.63,571.72 771.47,547.55 814.32,552.13 857.16,556.23 900.00,559.92" fill="none" stroke="#ea580c" stroke-width="2.6" stroke-linejoin="round" stroke-linecap="round"/>
<circle cx="900.00" cy="559.92" r="3.5" fill="#ea580c"/>
<polyline points="86.00,630.00 128.84,630.00 171.68,630.00 214.53,630.00 257.37,630.00 300.21,630.00 343.05,630.00 385.89,630.00 428.74,630.00 471.58,630.00 514.42,630.00 557.26,630.00 600.11,630.00 642.95,630.00 685.79,630.00 728.63,630.00 771.47,630.00 814.32,630.00 857.16,630.00 900.00,630.00" fill="none" stroke="#0891b2" stroke-width="2.6" stroke-linejoin="round" stroke-linecap="round"/>
<circle cx="900.00" cy="630.00" r="3.5" fill="#0891b2"/>
<text x="934.0" y="86.0" font-family="Inter, Arial, sans-serif" font-size="16" font-weight="700" text-anchor="start" fill="#111827">Repeats</text>
<line x1="934" y1="112.0" x2="964" y2="112.0" stroke="#2563eb" stroke-width="3"/>
<text x="974.0" y="117.0" font-family="Inter, Arial, sans-serif" font-size="13" font-weight="400" text-anchor="start" fill="#374151">run 0: final=0.149</text>
<line x1="934" y1="140.0" x2="964" y2="140.0" stroke="#dc2626" stroke-width="3"/>
<text x="974.0" y="145.0" font-family="Inter, Arial, sans-serif" font-size="13" font-weight="400" text-anchor="start" fill="#374151">run 1: final=0.079</text>
<line x1="934" y1="168.0" x2="964" y2="168.0" stroke="#16a34a" stroke-width="3"/>
<text x="974.0" y="173.0" font-family="Inter, Arial, sans-serif" font-size="13" font-weight="400" text-anchor="start" fill="#374151">run 2: final=0.000</text>
<line x1="934" y1="196.0" x2="964" y2="196.0" stroke="#9333ea" stroke-width="3"/>
<text x="974.0" y="201.0" font-family="Inter, Arial, sans-serif" font-size="13" font-weight="400" text-anchor="start" fill="#374151">run 3: final=0.144</text>
<line x1="934" y1="224.0" x2="964" y2="224.0" stroke="#ea580c" stroke-width="3"/>
<text x="974.0" y="229.0" font-family="Inter, Arial, sans-serif" font-size="13" font-weight="400" text-anchor="start" fill="#374151">run 4: final=0.127</text>
<line x1="934" y1="252.0" x2="964" y2="252.0" stroke="#0891b2" stroke-width="3"/>
<text x="974.0" y="257.0" font-family="Inter, Arial, sans-serif" font-size="13" font-weight="400" text-anchor="start" fill="#374151">run 5: final=0.000</text>
</svg>